<?xml version="1.0" standalone="no"?><svg xmlns="http://www.w3.org/2000/svg" viewBox="0 0 1440 320"><path fill="#fff" fill-opacity="1" d="M0,96L0,32L36.9,32L36.9,224L73.8,224L73.8,128L110.8,128L110.8,128L147.7,128L147.7,0L184.6,0L184.6,288L221.5,288L221.5,160L258.5,160L258.5,64L295.4,64L295.4,288L332.3,288L332.3,128L369.2,128L369.2,32L406.2,32L406.2,224L443.1,224L443.1,96L480,96L480,96L516.9,96L516.9,64L553.8,64L553.8,128L590.8,128L590.8,128L627.7,128L627.7,0L664.6,0L664.6,96L701.5,96L701.5,32L738.5,32L738.5,160L775.4,160L775.4,256L812.3,256L812.3,192L849.2,192L849.2,96L886.2,96L886.2,320L923.1,320L923.1,288L960,288L960,224L996.9,224L996.9,0L1033.8,0L1033.8,160L1070.8,160L1070.8,64L1107.7,64L1107.7,288L1144.6,288L1144.6,64L1181.5,64L1181.5,128L1218.5,128L1218.5,288L1255.4,288L1255.4,96L1292.3,96L1292.3,96L1329.2,96L1329.2,96L1366.2,96L1366.2,96L1403.1,96L1403.1,128L1440,128L1440,320L1403.1,320L1403.1,320L1366.2,320L1366.2,320L1329.2,320L1329.2,320L1292.3,320L1292.3,320L1255.4,320L1255.4,320L1218.5,320L1218.5,320L1181.5,320L1181.5,320L1144.6,320L1144.6,320L1107.7,320L1107.7,320L1070.8,320L1070.8,320L1033.8,320L1033.8,320L996.9,320L996.9,320L960,320L960,320L923.1,320L923.1,320L886.2,320L886.2,320L849.2,320L849.2,320L812.3,320L812.3,320L775.4,320L775.4,320L738.5,320L738.5,320L701.5,320L701.5,320L664.6,320L664.6,320L627.7,320L627.7,320L590.8,320L590.8,320L553.8,320L553.8,320L516.9,320L516.9,320L480,320L480,320L443.1,320L443.1,320L406.2,320L406.2,320L369.2,320L369.2,320L332.3,320L332.3,320L295.4,320L295.4,320L258.5,320L258.5,320L221.5,320L221.5,320L184.6,320L184.6,320L147.7,320L147.7,320L110.8,320L110.8,320L73.8,320L73.8,320L36.9,320L36.9,320L0,320L0,320Z"></path></svg>